# xmcd
#
# Track frame offsets:
#	182
#	13945
#	27712
#	37672
#	50615
#	60207
#	75115
#	84825
#	96860
#	112620
#	131395
#	143667
#
# Disc length: 2063 seconds
#
# Revision: 0
# Processed by: cddbd v1.4PL0 Copyright (c) Steve Scherf et al.
# Submitted via: dBpowerAMP V4.0
#
DISCID=7e080d0c
DTITLE=Tom T. Hall - Singing Storyteller
DYEAR=1900
DGENRE=Country
TTITLE0=A Week In a Country Jail
TTITLE1=Ballad of forth Dollars
TTITLE2=Country Is
TTITLE3=Faster horses
TTITLE4=Fox On The Run
TTITLE5=Homecoming
TTITLE6=I Love
TTITLE7=Before Jessie Died
TTITLE8=Coot Marseilles Blues
TTITLE9=Old Dogs and Children
TTITLE10=Don't Forget The Coffee Billy Joe
TTITLE11=Ravishing Ruby
EXTD=
EXTT0=
EXTT1=
EXTT2=
EXTT3=
EXTT4=
EXTT5=
EXTT6=
EXTT7=
EXTT8=
EXTT9=
EXTT10=
EXTT11=
PLAYORDER=
